<?xml version="1.0" encoding="UTF-8"?>
<svg xmlns="http://www.w3.org/2000/svg" id="Layer_1" data-name="Layer 1" viewBox="0 0 24 24">
  <path d="m15,15.5c0,1.381-1.343,2.5-3,2.5s-3-1.119-3-2.5,1.343-2.5,3-2.5,3,1.119,3,2.5Zm-5-4c0-.828-.672-1.5-1.5-1.5s-1.5.672-1.5,1.5.672,1.5,1.5,1.5,1.5-.672,1.5-1.5Zm5.5-1.5c-.828,0-1.5.672-1.5,1.5s.672,1.5,1.5,1.5,1.5-.672,1.5-1.5-.672-1.5-1.5-1.5ZM24,0h-1.5c-3.275,0-6.146,0-8.273,2.227-.719-.149-1.464-.227-2.227-.227s-1.507.078-2.227.227C7.646,0,4.775,0,1.5,0H0v1.5c0,.157.022,3.653,1.87,7.212-.56,1.318-.87,2.767-.87,4.288,0,6.065,4.935,11,11,11s11-4.935,11-11c0-1.52-.31-2.969-.87-4.288,1.848-3.559,1.87-7.056,1.87-7.212V0ZM3.145,3.013c1.437.032,2.485.139,3.308.491-.989.58-1.88,1.31-2.642,2.159-.354-1-.554-1.927-.667-2.651Zm8.855,17.987c-4.418,0-8-3.582-8-8S7.582,5,12,5s8,3.582,8,8-3.582,8-8,8Zm8.189-15.336c-.761-.849-1.652-1.579-2.642-2.159.825-.352,1.871-.46,3.308-.491-.113.724-.313,1.651-.667,2.651Z"/>
</svg>
