<?xml version="1.0" encoding="UTF-8"?>
<svg xmlns="http://www.w3.org/2000/svg" id="Layer_1" data-name="Layer 1" viewBox="0 0 24 24">
  <path d="M24,14.5c0-.828-.671-1.5-1.5-1.5-.531,0-1.615,.308-2.87,.964l-1.964-1.964,2.127-2.121c1.866-1.861,3.287-4.169,4.108-6.674,.591-1.809-1.297-3.687-3.104-3.079-2.492,.817-4.79,2.229-6.646,4.08l-2.143,2.137-2.126-2.127C8.034,2.368,5.746,.958,3.263,.137,1.451-.507-.473,1.394,.133,3.215c.819,2.497,2.235,4.801,4.094,6.659l2.119,2.119-1.976,1.971c-1.256-.656-2.34-.964-2.87-.964-.829,0-1.5,.672-1.5,1.5,0,.799,.625,1.452,1.413,1.497,.337,.06,1.583,.472,2.96,1.5l-2.935,2.943c-.585,.587-.584,1.537,.003,2.122,.586,.585,1.536,.583,2.121-.003l2.933-2.941c1.033,1.381,1.447,2.631,1.508,2.97,.046,.787,.699,1.411,1.498,1.411,.829,0,1.5-.672,1.5-1.5,0-.532-.311-1.62-.972-2.882l1.974-1.969,1.969,1.969c-.661,1.261-.972,2.35-.972,2.882,0,.828,.671,1.5,1.5,1.5,.799,0,1.452-.624,1.498-1.411,.061-.339,.475-1.589,1.508-2.97l2.933,2.941c.585,.585,1.535,.588,2.121,.003,.587-.585,.588-1.535,.003-2.122l-2.935-2.943c1.377-1.029,2.623-1.44,2.96-1.5,.788-.045,1.413-.698,1.413-1.497ZM6.348,7.753c-1.251-1.251-2.257-2.746-2.946-4.359,1.623,.693,3.113,1.697,4.36,2.944l2.124,2.124-1.416,1.413-2.122-2.122Zm1.287,8.603c-.242-.242-.49-.46-.739-.674L16.271,6.329c1.238-1.234,2.715-2.23,4.354-2.933-.695,1.623-1.702,3.112-2.951,4.359l-9.364,9.34c-.214-.249-.433-.498-.675-.74Zm6.491-.825l1.416-1.412,1.562,1.562c-.5,.417-.997,.914-1.414,1.414l-1.564-1.564Z"/>
</svg>
